<!DOCTYPE svg PUBLIC "-//W3C//DTD SVG 1.1//EN" "http://www.w3.org/Graphics/SVG/1.1/DTD/svg11.dtd">
<!-- Uploaded to: SVG Repo, www.svgrepo.com, Transformed by: SVG Repo Mixer Tools -->
<svg width="800px" height="800px" viewBox="-3.2 -3.2 38.40 38.40" id="OBJECT" xmlns="http://www.w3.org/2000/svg" fill="#00ffd5" transform="rotate(0)matrix(1, 0, 0, 1, 0, 0)">
<g id="SVGRepo_bgCarrier" stroke-width="0"/>
<g id="SVGRepo_tracerCarrier" stroke-linecap="round" stroke-linejoin="round"/>
<g id="SVGRepo_iconCarrier">
<defs>
<style>.cls-1{fill:#ff00d0;}</style>
</defs>
<title/>
<path class="cls-1" d="M20.93,21.63,19,16.81V12A7,7,0,0,0,5,12v4.81L3.07,21.63A.94.94,0,0,0,3,22v4a1,1,0,0,0,1,1H20a1,1,0,0,0,1-1V22A.94.94,0,0,0,20.93,21.63Z"/>
<path class="cls-1" d="M16.79,25.38A1,1,0,0,0,16,25H8a1,1,0,0,0-.79.38,1,1,0,0,0-.18.86l.27,1.09a4.84,4.84,0,0,0,9.4,0L17,26.24A1,1,0,0,0,16.79,25.38Z"/>
<path d="M20,21H4a3,3,0,0,0-3,3v2a1,1,0,0,0,1,1H22a1,1,0,0,0,1-1V24A3,3,0,0,0,20,21Z"/>
<circle cx="22" cy="10" r="9"/>
<path class="cls-1" d="M21.24,13a1,1,0,0,1-.73-.32L18.27,10.3a1,1,0,0,1,1.46-1.37l1.51,1.61,3-3.22a1,1,0,1,1,1.46,1.36l-3.76,4A1,1,0,0,1,21.24,13Z"/>
</g>
</svg>